<svg width="37" height="25" viewBox="0 0 37 25" fill="none" xmlns="http://www.w3.org/2000/svg">
<g clip-path="url(#clip0_245_532)">
<path d="M0.333252 0.349365H36.2631V24.3494H0.333252V0.349365Z" fill="white"/>
<path d="M0.333252 0.349365H36.2631V6.74936H0.333252V0.349365ZM0.333252 17.9494H36.2631V24.3494H0.333252V17.9494Z" fill="#DD172C"/>
<path d="M0.333252 6.73535H36.2631V17.9634H0.333252V6.73535Z" fill="#FFD133"/>
<path fill-rule="evenodd" clip-rule="evenodd" d="M11.8333 11.3325H13.3333V12.3325H11.8333V11.3325Z" fill="#FFEDB1"/>
<path fill-rule="evenodd" clip-rule="evenodd" d="M13.0298 11.6325L10.6367 11.6325L10.857 14.2984C10.8912 14.7133 11.238 15.0325 11.6542 15.0325H12.0123C12.4286 15.0325 12.7753 14.7133 12.8096 14.2984L13.0298 11.6325ZM10.6367 10.8325C10.1689 10.8325 9.80092 11.2322 9.83944 11.6984L10.0597 14.3643C10.1282 15.194 10.8217 15.8325 11.6542 15.8325H12.0123C12.8449 15.8325 13.5383 15.194 13.6068 14.3643L13.8271 11.6984C13.8656 11.2322 13.4976 10.8325 13.0298 10.8325H10.6367Z" fill="#A41517"/>
<path fill-rule="evenodd" clip-rule="evenodd" d="M10.3333 12.3325H13.3333V13.3325H12.3333L11.8333 14.8325L11.3333 13.3325H10.3333V12.3325Z" fill="#A41517"/>
<path d="M7.33325 11.0825C7.33325 10.6683 7.66904 10.3325 8.08325 10.3325C8.49747 10.3325 8.83325 10.6683 8.83325 11.0825V15.0825C8.83325 15.4967 8.49747 15.8325 8.08325 15.8325C7.66904 15.8325 7.33325 15.4967 7.33325 15.0825V11.0825Z" fill="#A41517"/>
<path d="M14.8333 11.0825C14.8333 10.6683 15.169 10.3325 15.5833 10.3325C15.9975 10.3325 16.3333 10.6683 16.3333 11.0825V15.0825C16.3333 15.4967 15.9975 15.8325 15.5833 15.8325C15.169 15.8325 14.8333 15.4967 14.8333 15.0825V11.0825Z" fill="#A41517"/>
<path fill-rule="evenodd" clip-rule="evenodd" d="M10.3333 9.53252C10.3333 8.86978 10.8705 8.33252 11.5333 8.33252H12.1333C12.796 8.33252 13.3333 8.86978 13.3333 9.53252C13.3333 9.6982 13.1989 9.83252 13.0333 9.83252H10.6333C10.4676 9.83252 10.3333 9.6982 10.3333 9.53252Z" fill="#A41517"/>
</g>
<defs>
<clipPath id="clip0_245_532">
<rect width="36" height="24" fill="white" transform="translate(0.333252 0.33252)"/>
</clipPath>
</defs>
</svg>
