<svg width="36" height="25" viewBox="0 0 36 25" fill="none" xmlns="http://www.w3.org/2000/svg">
<path d="M0 0.33252H36V24.3328H0V0.33252Z" fill="white"/>
<path d="M20 0.332275H16V10.3325H0V14.3325L16 14.3325V24.3322L20 24.3322V14.3325L36 14.3325V10.3325L20 10.3325V0.332275Z" fill="#FE1E2B"/>
<path d="M27.1493 15.3325L36 20.6431V15.3325H27.1493ZM21 15.3325L36 24.3325V21.7875L25.2417 15.3325H21ZM32.0045 24.3325L21 17.7292V24.3325H32.0045Z" fill="#0A17A7"/>
<path d="M21 15.3325L36 24.3325V21.7875L25.2417 15.3325H21Z" fill="#FE1E2B"/>
<path d="M6.76381 15.3325L0 19.3908V15.3325H6.76381ZM15 16.477V24.3325H1.9085L15 16.477Z" fill="#0A17A7"/>
<path d="M10.7583 15.3325L0 21.7875V24.3325L15 15.3325H10.7583Z" fill="#FE1E2B"/>
<path d="M8.85072 9.33231L0 4.0219V9.33231H8.85072ZM15 9.33231L0 0.33252V2.87744L10.7583 9.33231H15ZM3.9955 0.33252L15 6.93569V0.33252H3.9955Z" fill="#0A17A7"/>
<path d="M15 9.33207L0 0.332275V2.87719L10.7583 9.33207H15Z" fill="#FE1E2B"/>
<path d="M29.2362 9.33232L36 5.27405V9.33232H29.2362ZM21 8.18785V0.332397H34.0915L21 8.18785Z" fill="#0A17A7"/>
<path d="M25.2417 9.3322L36 2.87723V0.332275L21 9.3322H25.2417Z" fill="#FE1E2B"/>
</svg>
