<svg width="37" height="25" viewBox="0 0 37 25" fill="none" xmlns="http://www.w3.org/2000/svg">
<g clip-path="url(#clip0_245_805)">
<path d="M0.333252 0.332764H36.3333V24.3322H0.333252V0.332764Z" fill="white"/>
<path d="M0.333252 8.33264H36.3333V16.3324H0.333252V8.33264Z" fill="#0C47B7"/>
<path d="M0.333252 16.3324H36.3333V24.3322H0.333252V16.3324Z" fill="#E53B35"/>
<mask id="mask0_245_805" style="mask-type:alpha" maskUnits="userSpaceOnUse" x="10" y="4" width="7" height="9">
<path d="M16.3333 8.04411V9.11601C16.3333 11.5782 13.3381 12.3325 13.3381 12.3325C13.3381 12.3325 10.343 11.5783 10.343 9.11601V8.04411L10.3333 4.85174L16.3234 4.83252L16.3333 8.04411Z" fill="#0C47B7"/>
</mask>
<g mask="url(#mask0_245_805)">
<path d="M16.3333 9.11601C16.3333 11.5782 13.3381 12.3325 13.3381 12.3325C13.3381 12.3325 10.343 11.5783 10.343 9.11601L10.3333 4.85174L16.3234 4.83252L16.3333 9.11601Z" fill="#0C47B7"/>
<path d="M16.3333 7.83277V8.83252C16.3333 12.3325 13.3333 12.3325 13.3333 12.3325C13.3333 12.3325 10.3333 12.3325 10.3333 8.83252V7.83277L11.3333 8.83252L13.3333 7.33252L15.3335 8.83252L16.3333 7.83277Z" fill="white"/>
</g>
</g>
<defs>
<clipPath id="clip0_245_805">
<rect width="36" height="24" fill="white" transform="translate(0.333252 0.33252)"/>
</clipPath>
</defs>
</svg>
