<svg width="36" height="24" viewBox="0 0 36 24" fill="none" xmlns="http://www.w3.org/2000/svg">
<g clip-path="url(#clip0_1118_3186)">
<path d="M0 0.000244141H36V23.9997H0V0.000244141Z" fill="white"/>
<path d="M0 8H36V16H0V8Z" fill="#0C47B7"/>
<path d="M0 16H36V24H0V16Z" fill="#E53B35"/>
<path d="M9.10327 6.78278V12.7689C9.10327 16.1741 13.5517 17.2174 13.5517 17.2174C13.5517 17.2174 18.0001 16.1739 18.0001 12.7689V6.78278H9.10327Z" fill="white"/>
<path d="M10.2744 6.95819V12.7197C10.2744 13.1044 10.3598 13.4678 10.5292 13.8085H16.5739C16.7432 13.4679 16.8287 13.1045 16.8287 12.7197V6.95819H10.2744Z" fill="#E53B35"/>
<path d="M15.5602 10.9754H14.0538V9.97108H15.0581V8.96681H14.0538V7.96246H13.0495V8.96681H12.0453V9.97108H13.0495V10.9754H11.543V11.9797H13.0495V12.984H14.0538V11.9797H15.5602V10.9754Z" fill="white"/>
<path d="M11.8992 15.2103C12.5464 15.617 13.2113 15.8532 13.5517 15.9582C13.8922 15.8531 14.557 15.617 15.2042 15.2103C15.8568 14.8002 16.3144 14.331 16.5742 13.8084C16.2779 13.5983 15.9236 13.4857 15.5604 13.4861C15.4229 13.4861 15.2893 13.5025 15.1609 13.5323C14.8887 12.9139 14.2709 12.4819 13.5519 12.4819C12.8328 12.4819 12.215 12.9139 11.9428 13.5323C11.8119 13.5017 11.6778 13.4862 11.5433 13.4861C11.1801 13.4857 10.8258 13.5983 10.5295 13.8084C10.7891 14.331 11.2466 14.8002 11.8992 15.2103Z" fill="#0C47B7"/>
</g>
<defs>
<clipPath id="clip0_1118_3186">
<rect width="36" height="24" fill="white"/>
</clipPath>
</defs>
</svg>
