<svg width="21" height="21" viewBox="0 0 21 21" fill="none" xmlns="http://www.w3.org/2000/svg">
<mask id="mask0_69_174" style="mask-type:luminance" maskUnits="userSpaceOnUse" x="0" y="0" width="21" height="21">
<path d="M20.5 0.36377H0.5V20.3638H20.5V0.36377Z" fill="white"/>
</mask>
<g mask="url(#mask0_69_174)">
<path d="M18.8764 2.54562L1.15732 9.07359C0.444277 9.37752 0.203102 9.98638 0.984944 10.3167L5.53069 11.6969L16.5216 5.20741C17.1217 4.8 17.7361 4.90864 17.2074 5.35678L7.76771 13.5224L7.47119 16.9779C7.74579 17.5116 8.24879 17.514 8.5695 17.2489L11.1812 14.888L15.654 18.0879C16.6929 18.6754 17.2581 18.2962 17.4816 17.2193L20.4154 3.94746C20.72 2.6218 20.2006 2.03772 18.8764 2.54562Z" fill="#D6D8FB"/>
</g>
</svg>
